<?xml version="1.0" encoding="UTF-8"?>
<svg id="Layer_1" data-name="Layer 1" xmlns="http://www.w3.org/2000/svg" viewBox="0 0 576 208.65">
  <defs>
    <style>
      .cls-1 {
        fill: #fff;
      }

      .cls-2 {
        fill: #ff2500;
      }
    </style>
  </defs>
  <rect class="cls-2" x="0" y="0" width="576" height="208.65"/>
  <g>
    <path class="cls-1" d="M48.55,51.55h8.47l19.71,26.52c1.49,2.06,2.91,4.05,4.41,6.04v-32.49h9.03v48.49h-8.47l-19.91-26.74c-1.42-1.99-2.78-3.91-4.13-5.76v32.41h-9.1v-48.48Z"/>
    <path class="cls-1" d="M93.5,80.9c0-11.88,7.89-20.48,19.42-20.48s18.35,7.46,18.35,19.55c0,1.2-.07,2.27-.22,3.49h-29.16c.93,5.9,5.2,10.09,11.31,10.09,4.48,0,8.04-2.27,10.03-6.47l7.18,3.55c-3.42,7.11-9.75,10.52-17.57,10.52-11.53,0-19.35-8.53-19.35-20.26h0ZM123.3,76.71c-.93-5.4-4.48-8.67-10.38-8.67-5.47,0-9.31,3.55-10.67,8.67h21.05Z"/>
    <path class="cls-1" d="M129.2,61.71v-.14h9.31l10.45,28.15,10.38-28.15h9.38v.14l-15.43,38.39h-8.68l-15.43-38.39h0Z"/>
    <path class="cls-1" d="M166.61,80.98c0-11.59,7.68-20.19,17.57-20.19,5.69,0,9.96,2.13,12.51,6.54h.14c-.07-1.99-.07-3.42-.07-5.76h8.53v38.46h-8.53c0-2.35,0-3.34.07-5.55h-.14c-2.71,4.13-7.4,6.54-12.45,6.54-10.24,0-17.64-8.46-17.64-20.05h0ZM197.05,80.9c0-7.25-4.41-12.37-11.02-12.37s-10.89,5.4-10.89,12.44,4.41,12.3,10.89,12.3,11.02-5.04,11.02-12.37Z"/>
    <path class="cls-1" d="M208.08,80.83c0-11.66,7.4-20.19,17.64-20.19,5.26,0,10.03,1.99,12.51,6.33h.07c-.07-2.35-.07-3.34-.07-6.11v-12.37h8.53v51.54h-8.53c0-2.06,0-3.42.07-5.4h-.07c-2.63,3.98-7.18,6.33-12.59,6.33-9.89,0-17.57-8.6-17.57-20.12h0ZM238.51,80.83c0-7.33-4.41-12.3-11.02-12.3s-10.89,5.33-10.89,12.37,4.41,12.37,10.89,12.37,11.02-5.19,11.02-12.44Z"/>
    <path class="cls-1" d="M249.53,80.98c0-11.59,7.68-20.19,17.57-20.19,5.69,0,9.96,2.13,12.51,6.54h.14c-.07-1.99-.07-3.42-.07-5.76h8.53v38.46h-8.53c0-2.35,0-3.34.07-5.55h-.14c-2.71,4.13-7.4,6.54-12.45,6.54-10.24,0-17.64-8.46-17.64-20.05h0ZM279.98,80.9c0-7.25-4.41-12.37-11.02-12.37s-10.89,5.4-10.89,12.44,4.41,12.3,10.89,12.3,11.02-5.04,11.02-12.37Z"/>
    <path class="cls-1" d="M301.94,75.78c0-14.64,10.38-25.38,25.11-25.38,10.17,0,18.64,5.4,22.4,14.64l-8.89,3.2c-2.35-5.83-7.25-9.53-13.58-9.53-9.31,0-15.22,7.53-15.22,17.06s5.83,17.13,15.22,17.13c6.4,0,11.45-3.77,13.8-9.81l8.82,3.2c-3.69,9.38-12.24,14.86-22.55,14.86-14.73,0-25.11-10.73-25.11-25.38v.02Z"/>
    <path class="cls-1" d="M350.66,80.76c0-11.66,8.11-20.33,19.71-20.33s19.71,8.6,19.71,20.26-8.11,20.41-19.71,20.41-19.71-8.67-19.71-20.33h0ZM381.39,80.69c0-6.89-4.27-12.51-11.02-12.51s-11.02,5.62-11.02,12.59,4.27,12.59,11.02,12.59,11.02-5.76,11.02-12.66h0Z"/>
    <path class="cls-1" d="M392.69,84.45v-22.89h8.53v22.32c0,5.62,3.06,9.46,8.39,9.46s8.47-3.84,8.47-9.46v-22.32h8.53v22.9c0,10.31-6.62,16.71-17,16.71s-16.93-6.4-16.93-16.71h0Z"/>
    <path class="cls-1" d="M430.24,61.57h8.53c0,2.27,0,3.62-.07,5.76h.14c2.27-4.05,6.54-6.61,11.67-6.61,9.18,0,13.87,6.47,13.87,14.79v24.52h-8.53v-22.18c0-5.47-2.85-9.38-8.4-9.38s-8.68,4.4-8.68,9.74v21.83h-8.53v-38.46h.01Z"/>
    <path class="cls-1" d="M471.49,88.02v-18.55h-5.91v-7.89h5.91v-9.96h8.53v9.95h11.09v7.89h-11.09v16.85c0,3.69,2,6.11,5.76,6.11,1.71,0,3.77-.42,5.26-1.14l.49,7.82c-1.85.85-4.41,1.49-7.33,1.49-8.46,0-12.73-5.9-12.73-12.59h.01Z"/>
    <path class="cls-1" d="M493.25,104.5l7.89-2.49c1.49,2.98,4.41,4.84,8.67,4.84,5.69,0,9.18-3.69,9.11-9.46,0-2.63,0-3.91.07-6.26h-.14c-2.2,3.98-6.47,6.54-11.67,6.54-9.11,0-13.8-6.47-13.8-14.72v-21.38h8.53v19.05c0,5.47,2.91,9.31,8.32,9.31s8.67-4.27,8.67-9.67v-18.7h8.53v35.26c0,10.38-6.97,17.35-17.49,17.35-9.04,0-14.29-4.13-16.71-9.67h.01Z"/>
    <path class="cls-1" d="M98.91,109.2h9.38l19.49,48.49h-10.24l-4.27-11.8h-19.84l-4.48,11.8h-9.6l19.56-48.49h0ZM110.29,137.78l-6.69-18.27-7.04,18.27h13.73Z"/>
    <path class="cls-1" d="M129.99,119.23h8.53c0,2.27,0,3.84-.07,5.97h.07c2.2-4.05,5.76-6.11,9.96-6.11.71,0,1.35.07,2.06.14v7.89h-2.71c-6.11,0-9.31,4.55-9.31,10.38v20.19h-8.53v-38.46h0Z"/>
    <path class="cls-1" d="M157.94,127.11h-5.76v-7.89h5.76v-9.95h8.53v9.95h8.53v7.89h-8.53v30.57h-8.53v-30.57Z"/>
    <path class="cls-1" d="M174.23,151.72l6.11-5.4c2,2.91,4.91,4.91,8.4,4.91,3.06,0,4.98-1.78,4.98-4.27,0-2.91-2.49-3.69-5.4-4.69-6.97-2.27-12.16-5.05-12.16-12.3s5.76-11.87,13.09-11.87c5.12,0,8.96,2.13,12.09,5.9l-6.05,5.62c-1.92-2.56-3.77-3.91-6.18-3.91-3.13,0-4.84,1.71-4.84,3.91,0,2.91,2.63,3.69,5.62,4.69,7.04,2.27,11.95,4.91,11.95,12.37,0,6.97-5.26,12.15-13.66,12.15-5.91,0-10.82-2.71-13.94-7.11h0Z"/>
    <path class="cls-1" d="M245.48,153.28c-4.27,3.49-9.25,5.62-15.22,5.62-8.96,0-16.43-4.98-16.43-14.15,0-6.18,3.63-10.38,8.6-13.51-2.35-2.77-3.98-6.11-3.98-10.17,0-7.89,5.83-13.08,13.58-13.08,7.25,0,12.94,4.55,12.94,12.08,0,5.83-3.63,9.74-8.32,12.94l8.6,8.24c2.49-4.33,4.2-9.6,5.33-15.08h9.18c-1.56,7.89-4.48,15.08-8.53,20.76l10.89,10.52v.22h-12.09l-4.55-4.4h0ZM227.77,136.22c-2.63,1.99-4.69,4.33-4.69,7.89,0,4.33,3.56,6.82,7.82,6.82,3.49,0,6.33-1.28,8.82-3.2l-11.95-11.52h0ZM236.59,121.29c0-2.84-1.92-4.76-4.55-4.76-2.78,0-4.84,2.06-4.84,4.98,0,3.13,1.92,5.33,4.13,7.04,2.84-1.78,5.26-3.77,5.26-7.25h0Z"/>
    <path class="cls-1" d="M273.93,133.44c0-14.64,10.38-25.38,25.11-25.38,10.17,0,18.64,5.4,22.4,14.64l-8.89,3.2c-2.35-5.83-7.25-9.53-13.58-9.53-9.31,0-15.22,7.53-15.22,17.06s5.83,17.13,15.22,17.13c6.4,0,11.45-3.77,13.8-9.81l8.82,3.2c-3.69,9.38-12.24,14.86-22.55,14.86-14.73,0-25.11-10.73-25.11-25.38v.02Z"/>
    <path class="cls-1" d="M324.07,142.11v-22.9h8.53v22.32c0,5.62,3.06,9.46,8.4,9.46s8.46-3.84,8.46-9.46v-22.32h8.53v22.9c0,10.31-6.62,16.71-17,16.71s-16.93-6.4-16.93-16.71Z"/>
    <path class="cls-1" d="M361.68,147.02v-40.87h8.53v38.74c0,3.27,1.21,5.47,4.05,5.47,1,0,2.2-.29,3.49-.71l.42,7.89c-2.27.71-3.98,1-6.54,1-6.62,0-9.96-4.55-9.96-11.52h0Z"/>
    <path class="cls-1" d="M381.95,127.11h-5.76v-7.89h5.76v-9.95h8.53v9.95h8.53v7.89h-8.53v30.57h-8.53v-30.57Z"/>
    <path class="cls-1" d="M400.51,142.11v-22.9h8.53v22.32c0,5.62,3.06,9.46,8.4,9.46s8.46-3.84,8.46-9.46v-22.32h8.53v22.9c0,10.31-6.62,16.71-17,16.71s-16.93-6.4-16.93-16.71Z"/>
    <path class="cls-1" d="M438.06,119.23h8.53c0,2.27,0,3.84-.07,5.97h.07c2.2-4.05,5.76-6.11,9.96-6.11.71,0,1.35.07,2.06.14v7.89h-2.71c-6.11,0-9.32,4.55-9.32,10.38v20.19h-8.53v-38.46h0Z"/>
    <path class="cls-1" d="M457.12,138.35c0-11.88,7.82-20.26,19.42-20.26,10.1,0,17.22,6.04,19,15.15l-28.09,12.8c1.92,3.27,5.12,5.19,9.24,5.19,6.05,0,10.24-4.4,11.02-9.95h8.32c-1.07,10.59-9.03,17.56-19.49,17.56-11.66,0-19.42-8.6-19.42-20.48h0ZM485.57,130.38c-1.92-3.2-5.19-4.69-8.82-4.69-6.4,0-11.24,4.76-11.24,12.66v1.14l20.06-9.1Z"/>
  </g>
</svg>